<svg fill="none" height="24" viewBox="0 0 24 24" width="24" xmlns="http://www.w3.org/2000/svg"><g fill="#000"><path d="m2.00014 22.7502c-.2 0-.39003-.08-.53003-.22-.19-.19-.26995-.47-.19995-.73l1.26001-4.71c-.84-1.56-1.28003-3.32-1.28003-5.1 0-5.92997 4.82-10.74997 10.74996-10.74997 5.93 0 10.75 4.82 10.75 10.74997 0 5.93-4.82 10.75-10.75 10.75-1.81 0-3.57993-.45-5.15993-1.31l-4.64002 1.29c-.07.02-.13001.03-.20001.03zm4.94-2.87c.13 0 .26001.0401.38001.1001 1.41.83 3.02995 1.2699 4.67995 1.2699 5.1 0 9.25-4.15 9.25-9.25 0-5.09996-4.15-9.24996-9.25-9.24996-5.09996 0-9.24996 4.15-9.24996 9.24996 0 1.63.42999 3.22 1.23999 4.62.1.17.13002.38.08002.57l-1 3.74 3.67999-1.02c.06-.02.13-.03.19-.03z"/><path d="m14.7402 17.7598c-.62 0-1.26-.14-1.93-.43-.63-.27-1.26-.63-1.87-1.08-.6-.44-1.18993-.94-1.72993-1.48-.54-.55-1.04005-1.13-1.48005-1.73-.45-.63-.81-1.25-1.07-1.86-.28-.66-.41999-1.31-.41999-1.93 0-.44.07998-.86.22998-1.25.16-.41.42001-.78001.76001-1.10001.64-.63 1.56004-.85998 2.29004-.50998.25.11.46.29.62004.53l1.1599 1.62998c.12.16.2101.33.2801.5.08.2.13.40002.13.59002 0 .26-.0701.51999-.2101.74999-.09.15-.22.33-.39.5l-.13.14c.06.08.13.18.24.3.21.24.44.5.69.75.25.24.5.48.75.69.12.1.2201.18.3001.23l.1399-.14c.18-.18.3601-.32.5401-.41.33-.21.8399-.26 1.2899-.07.16.06.32.15.49.27l1.6701 1.18c.23.16.4099.38.5299.63.1.25.1401.47.1401.7 0 .3-.0701.59-.2001.87-.13.26-.28.49-.46.7-.32.35-.6899.61-1.0899.78s-.8301.25-1.2701.25zm-5.94998-10.02001c-.06 0-.25995 0-.50995.25-.19.18-.32003.37002-.41003.58002s-.13001.45-.13001.69c0 .42.09999.86999.29999 1.34999.21.5.52003 1.03.90003 1.56.39.53.83 1.06 1.32005 1.55.49.48 1.0099.93 1.5499 1.33.52.38 1.0501.68 1.5801.91.76.33 1.4599.41 2.0299.17.2-.08.38-.22.56-.4.09-.1.1601-.2.2201-.33.03-.07.0499-.15.0499-.22 0-.02 0-.05-.03-.11l-1.67-1.16c-.07-.05-.14-.09-.2-.11-.04.02-.0999.05-.2099.16l-.38.38c-.29.29-.75.37-1.12.24l-.18-.08c-.23-.12-.4901-.3-.7801-.55-.28-.24-.5499-.49-.8399-.77-.28-.29-.53-.56-.77-.84-.26005-.31-.44005-.56-.56005-.77l-.10998-.26c-.03-.1-.04004-.21-.04004-.31 0-.28.10004-.53.29004-.73l.38003-.39c.11-.11.15-.16999.17-.20999-.03-.07-.07-.13001-.12-.20001l-1.17008-1.64999z"/></g></svg>